# xmcd
# Track frame offsets:
# 150
# 13725
# 31332
# 50787
# 66690
# 78408
#
# Disc length: 1282 seconds
# Revision: 0
# Processed by: cddbd v1.5.2PL0 Copyright (c) Steve Scherf et al.
# Submitted via: VisiTrax 2.10.2.252 - For more info visit www.synapsa.com
#
DISCID=51050006
DTITLE=Manco - The Blues Alone
DYEAR=2008
DGENRE=Blues
TTITLE0=Have you seen my baby
TTITLE1=I can´t quit you baby
TTITLE2=Going down slow
TTITLE3=Crawlin kingsnake
TTITLE4=Baby please don´t go
TTITLE5=Come on in my kitchen
EXTD=
EXTT0=
EXTT1=
EXTT2=
EXTT3=
EXTT4=
EXTT5=
PLAYORDER=
